<?xml version="1.0" encoding="iso-8859-1"?>
<!-- Generator: Adobe Illustrator 18.1.1, SVG Export Plug-In . SVG Version: 6.00 Build 0)  -->
<svg version="1.1" id="Capa_1" xmlns="http://www.w3.org/2000/svg" xmlns:xlink="http://www.w3.org/1999/xlink" x="0px" y="0px"
	 viewBox="0 0 56.426 56.426" style="enable-background:new 0 0 56.426 56.426;" xml:space="preserve">
<g>
	<g>
		<path style="fill:#010002;" d="M11.655,46.002c1.21,0.317,2.007,0.146,2.359,0.024c0.116-0.039,0.177-0.18,0.15-0.301
			c-2.058-8.545,8.11-20.599,9.46-22.153c0.081-0.092,0.17-0.263,0.192-0.384c0.175-0.93,0.616-4.638-2.86-6.892
			c-4.32-2.8-5.771-5.181-6.124-5.87c-0.057-0.11-0.098-0.301-0.105-0.424C14.65,8.487,13.992-0.264,9.256,0.006
			c-5.864,0.335-5.811,18.18-5.811,18.18c-0.823,15.936,6.73,26.152,7.857,27.582C11.378,45.864,11.536,45.972,11.655,46.002z"/>
		<path style="fill:#010002;" d="M15.822,46.735c-0.054-1.365,0.423-8.613,16.519-9.713c7.408-0.508,12.075-0.301,15.014,0.219
			c0.119,0.021,0.283-0.035,0.359-0.131c0.18-0.227,0.348-0.469,0.495-0.725c0.579-1.003,1.349-3.039-0.019-5.422
			c-1.705-2.967-0.594-5.653-0.491-5.885c1.474-2.83,1.858-5.212,1.147-7.078c-0.711-1.869-2.275-2.48-2.344-2.506
			c0,0-0.019-0.008-0.039-0.016c-0.022-0.009-0.062-0.019-0.084-0.022l-0.043-0.006c-0.759-0.118-1.537-0.178-2.314-0.178
			c-10.248,0-20.182,10.305-25.575,19.128c-3.312,5.418-3.659,9.438-3.393,11.815c0.014,0.122,0.109,0.276,0.211,0.347l0.391,0.267
			C15.759,46.901,15.828,46.858,15.822,46.735z"/>
		<path style="fill:#010002;" d="M33.375,38.347c-0.123,0.008-0.321,0.021-0.444,0.029c-15.878,1.152-16.35,8.341-16.296,9.699
			c0.005,0.123,0.06,0.311,0.118,0.419c4.617,8.627,27.767,2.598,30.999,0.888c2.372-1.252,2.176-3.472,2.049-4.171
			c-0.022-0.121,0.037-0.267,0.142-0.33c0.727-0.444,3.269-2.096,3.142-3.366C52.936,40.04,50.953,37.169,33.375,38.347z"/>
		<path style="fill:#010002;" d="M12.987,47.364c-0.177,0.013-0.346,0.047-0.506,0.101c-0.116,0.038-0.275,0.009-0.364-0.075
			c-1.217-1.189-4.253-3.672-8.498-3.769c-0.152-0.004-0.28,0.118-0.283,0.272c-0.004,0.152,0.118,0.28,0.272,0.283
			c3.896,0.088,6.789,2.359,8.017,3.518c0.09,0.086,0.084,0.219-0.002,0.307c-0.082,0.084-0.157,0.175-0.224,0.271
			c-0.07,0.102-0.205,0.146-0.316,0.092c-1.189-0.565-3.975-1.618-6.773-0.719c-0.146,0.047-0.226,0.203-0.179,0.35
			c0.047,0.146,0.204,0.227,0.35,0.179c2.613-0.84,5.304,0.194,6.399,0.714c0.112,0.053,0.176,0.193,0.161,0.315
			c-0.017,0.136-0.021,0.272-0.011,0.413c0.08,1.162,1.089,2.039,2.25,1.957c1.162-0.081,2.039-1.09,1.957-2.25
			C15.156,48.16,14.148,47.284,12.987,47.364z"/>
		<path style="fill:#010002;" d="M28.464,56.019c-0.645-0.463-0.904-0.955-1.006-1.227c-0.042-0.114-0.158-0.232-0.277-0.257
			c-0.86-0.175-4.104-0.868-6.812-1.899c-2.703-1.029-4.384-3.715-4.81-4.462c-0.06-0.106-0.082-0.098-0.058,0.022
			c0.221,1.082-0.01,1.986-0.144,2.377c-0.04,0.115-0.033,0.295,0.029,0.4c3.348,5.82,9.096,4.356,10.788,4.901
			C27.882,56.427,29.421,56.708,28.464,56.019z"/>
	</g>
</g>
<g>
</g>
<g>
</g>
<g>
</g>
<g>
</g>
<g>
</g>
<g>
</g>
<g>
</g>
<g>
</g>
<g>
</g>
<g>
</g>
<g>
</g>
<g>
</g>
<g>
</g>
<g>
</g>
<g>
</g>
</svg>
